<mxfile host="app.diagrams.net" modified="2023-10-11T19:57:33.938Z" agent="Mozilla/5.0 (Windows NT 10.0; Win64; x64) AppleWebKit/537.36 (KHTML, like Gecko) Chrome/104.0.0.0 Safari/537.36" etag="sHHumvtbnGHP--WqcWW9" version="22.0.4" type="github">
  <diagram name="PÃ¡gina-1" id="9G-s0WWsQ_Jq_iobijrn">
    <mxGraphModel dx="880" dy="1653" grid="1" gridSize="10" guides="1" tooltips="1" connect="1" arrows="1" fold="1" page="1" pageScale="1" pageWidth="827" pageHeight="1169" math="0" shadow="0">
      <root>
        <mxCell id="0" />
        <mxCell id="1" parent="0" />
        <mxCell id="B91-pMrZ9MWmzVXuQZUM-7" style="edgeStyle=orthogonalEdgeStyle;rounded=0;orthogonalLoop=1;jettySize=auto;html=1;exitX=0.5;exitY=1;exitDx=0;exitDy=0;exitPerimeter=0;" edge="1" parent="1" source="B91-pMrZ9MWmzVXuQZUM-1" target="B91-pMrZ9MWmzVXuQZUM-3">
          <mxGeometry relative="1" as="geometry" />
        </mxCell>
        <mxCell id="B91-pMrZ9MWmzVXuQZUM-1" value="inicio" style="strokeWidth=2;html=1;shape=mxgraph.flowchart.start_1;whiteSpace=wrap;" vertex="1" parent="1">
          <mxGeometry x="360" y="-250" width="100" height="60" as="geometry" />
        </mxCell>
        <mxCell id="B91-pMrZ9MWmzVXuQZUM-2" value="Fin" style="strokeWidth=2;html=1;shape=mxgraph.flowchart.terminator;whiteSpace=wrap;" vertex="1" parent="1">
          <mxGeometry x="360" y="380" width="100" height="60" as="geometry" />
        </mxCell>
        <mxCell id="B91-pMrZ9MWmzVXuQZUM-3" value="iterate(4)" style="verticalLabelPosition=middle;verticalAlign=middle;html=1;shape=hexagon;perimeter=hexagonPerimeter2;arcSize=6;size=0.27;labelPosition=center;align=center;" vertex="1" parent="1">
          <mxGeometry x="340" y="-100" width="140" height="80" as="geometry" />
        </mxCell>
        <mxCell id="B91-pMrZ9MWmzVXuQZUM-5" value="iterate(4)" style="verticalLabelPosition=middle;verticalAlign=middle;html=1;shape=hexagon;perimeter=hexagonPerimeter2;arcSize=6;size=0.27;labelPosition=center;align=center;" vertex="1" parent="1">
          <mxGeometry x="340" y="50" width="140" height="80" as="geometry" />
        </mxCell>
        <mxCell id="B91-pMrZ9MWmzVXuQZUM-6" value="iterate(4)" style="verticalLabelPosition=middle;verticalAlign=middle;html=1;shape=hexagon;perimeter=hexagonPerimeter2;arcSize=6;size=0.27;labelPosition=center;align=center;" vertex="1" parent="1">
          <mxGeometry x="340" y="180" width="140" height="80" as="geometry" />
        </mxCell>
      </root>
    </mxGraphModel>
  </diagram>
</mxfile>
